<?xml version="1.0" encoding="utf-8"?>
<!-- Uploaded to: SVG Repo, www.svgrepo.com, Generator: SVG Repo Mixer Tools -->
<svg fill="#000000" height="800px" width="800px" version="1.2" baseProfile="tiny" id="Layer_1" xmlns="http://www.w3.org/2000/svg" xmlns:xlink="http://www.w3.org/1999/xlink"
	  viewBox="-29 -170 900 900" xml:space="preserve">
<path d="M492.3-40v90.4h0.1v256.5L220.1,426c-39.5,12.9-70.1,40.4-88,74.6c-11.9,22.8-18.2,48.6-17.5,75c0.4,14.5,2.8,29.2,7.6,43.7
	c7.4,22.6,19.6,42.4,35.1,58.4c15.2,15.7,33.6,27.9,53.7,36c17.9,7.1,37.2,10.9,56.9,10.9c16.1,0,32.6-2.5,48.9-7.9l345.8-139.2
	C767,563.8,838.6,483.7,857,379.7c1.5-8.3,2.6-16.8,3.4-25.3l0.4-28.3l4.1-275.7h0.8V-6.3v-3h0V-40H492.3z M815.4,326.1H630.5v215.6
	L343.3,657.3l-83.4-199.5l277.8-121.4V50.3h281.9L815.4,326.1z M722.4-158.5v30.7v2.9v56.7h-0.9l-0.2,14.4H676l0.2-14.4H394.3V218
	L117.2,338.9l43.4,103.7c-16.8,14-30.9,31.3-41.3,51.3c-10.4,19.9-16.7,41.8-18.6,64c0.2,0,0.4,0.1,0.6,0.1
	c-1.2,15.5-0.2,31,2.9,46.4C47.5,596.7-2.3,558.1-21.1,500.7c-26.3-80.3,17.6-167,97.9-193.3l272.3-119V-68.1H349v-90.4H722.4z"/>
</svg>